<svg width="11" height="16" viewBox="0 0 11 16" fill="none" xmlns="http://www.w3.org/2000/svg">
<path d="M3.33386 5.83568C2.71488 5.83568 2.12125 5.5898 1.68357 5.15211C1.24589 4.71443 1 4.1208 1 3.50183C1 2.88285 1.24589 2.28922 1.68357 1.85154C2.12125 1.41386 2.71488 1.16797 3.33386 1.16797H5.66736V5.83568M3.33386 5.83568H5.66736M3.33386 5.83568C2.71497 5.83568 2.12144 6.08153 1.68382 6.51915C1.2462 6.95677 1.00035 7.55031 1.00035 8.16919C1.00035 8.78808 1.2462 9.38161 1.68382 9.81923C2.12144 10.2568 2.71497 10.5027 3.33386 10.5027H5.66736V5.83568" stroke="white"/>
<path d="M10.3352 8.16784C10.3352 8.78682 10.0893 9.38044 9.65165 9.81813C9.21397 10.2558 8.62034 10.5017 8.00136 10.5017C7.38238 10.5017 6.78876 10.2558 6.35108 9.81813C5.91339 9.38044 5.6675 8.78682 5.6675 8.16784C5.6675 7.54886 5.91339 6.95524 6.35108 6.51756C6.78876 6.07987 7.38238 5.83398 8.00136 5.83398C8.62034 5.83398 9.21397 6.07987 9.65165 6.51756C10.0893 6.95524 10.3352 7.54886 10.3352 8.16784ZM3.334 10.502H5.6675V12.8356C5.66737 13.2971 5.53039 13.7481 5.2739 14.1318C5.0174 14.5154 4.65291 14.8144 4.22651 14.9909C3.8001 15.1674 3.33093 15.2136 2.87832 15.1234C2.42571 15.0333 2.00999 14.811 1.68371 14.4846C1.35743 14.1583 1.13526 13.7425 1.04528 13.2898C0.955294 12.8372 1.00155 12.3681 1.17818 11.9417C1.35482 11.5153 1.65391 11.1509 2.03764 10.8946C2.42137 10.6382 2.8725 10.502 3.334 10.502Z" stroke="white"/>
<path d="M5.66748 1.16797H8.00099C8.61997 1.16797 9.21359 1.41386 9.65127 1.85154C10.089 2.28922 10.3348 2.88285 10.3348 3.50183C10.3348 4.1208 10.089 4.71443 9.65127 5.15211C9.21359 5.5898 8.61997 5.83568 8.00099 5.83568H5.66748V1.16797Z" stroke="white"/>
</svg>
