<svg width="50" height="50" viewBox="0 0 50 50" fill="none" xmlns="http://www.w3.org/2000/svg">
<rect width="50" height="50" rx="13" fill="url(#paint0_linear_1141_759)"/>
<path d="M17 18V28H22V24C22 23.4696 22.2107 22.9609 22.5858 22.5858C22.9609 22.2107 23.4696 22 24 22H29C29.5304 22 30.0391 22.2107 30.4142 22.5858C30.7893 22.9609 31 23.4696 31 24V28H33V18H17ZM13 32V30H17C16.4696 30 15.9609 29.7893 15.5858 29.4142C15.2107 29.0391 15 28.5304 15 28V18C15 17.4696 15.2107 16.9609 15.5858 16.5858C15.9609 16.2107 16.4696 16 17 16H33C33.5304 16 34.0391 16.2107 34.4142 16.5858C34.7893 16.9609 35 17.4696 35 18V28C35 28.5304 34.7893 29.0391 34.4142 29.4142C34.0391 29.7893 33.5304 30 33 30H37V32H31C31 32.5304 30.7893 33.0391 30.4142 33.4142C30.0391 33.7893 29.5304 34 29 34H24C23.4696 34 22.9609 33.7893 22.5858 33.4142C22.2107 33.0391 22 32.5304 22 32H13ZM24.5 32C24.3674 32 24.2402 32.0527 24.1464 32.1464C24.0527 32.2402 24 32.3674 24 32.5C24 32.6326 24.0527 32.7598 24.1464 32.8536C24.2402 32.9473 24.3674 33 24.5 33C24.6326 33 24.7598 32.9473 24.8536 32.8536C24.9473 32.7598 25 32.6326 25 32.5C25 32.3674 24.9473 32.2402 24.8536 32.1464C24.7598 32.0527 24.6326 32 24.5 32ZM28.5 32C28.3674 32 28.2402 32.0527 28.1464 32.1464C28.0527 32.2402 28 32.3674 28 32.5C28 32.6326 28.0527 32.7598 28.1464 32.8536C28.2402 32.9473 28.3674 33 28.5 33C28.6326 33 28.7598 32.9473 28.8536 32.8536C28.9473 32.7598 29 32.6326 29 32.5C29 32.3674 28.9473 32.2402 28.8536 32.1464C28.7598 32.0527 28.6326 32 28.5 32ZM26 32V33H27V32H26ZM24 24V31H29V24H24Z" fill="white"/>
<defs>
<linearGradient id="paint0_linear_1141_759" x1="0.0561807" y1="49.5238" x2="52.574" y2="46.6245" gradientUnits="userSpaceOnUse">
<stop stop-color="#EA411B"/>
<stop offset="1" stop-color="#FC8237"/>
</linearGradient>
</defs>
</svg>
