<svg width="50" height="50" viewBox="0 0 50 50" fill="none" xmlns="http://www.w3.org/2000/svg">
<rect width="50" height="50" rx="13" fill="url(#paint0_linear_1141_772)"/>
<path d="M25 37C23.34 37 21.78 36.6848 20.32 36.0544C18.86 35.424 17.59 34.5692 16.51 33.49C15.43 32.4108 14.5752 31.1408 13.9456 29.68C13.316 28.2192 13.0008 26.6592 13 25C12.9992 23.3408 13.3144 21.7808 13.9456 20.32C14.5768 18.8592 15.4316 17.5892 16.51 16.51C17.5884 15.4308 18.8584 14.576 20.32 13.9456C21.7816 13.3152 23.3416 13 25 13C26.6584 13 28.2184 13.3152 29.68 13.9456C31.1416 14.576 32.4116 15.4308 33.49 16.51C34.5684 17.5892 35.4236 18.8592 36.0556 20.32C36.6876 21.7808 37.0024 23.3408 37 25C36.9976 26.6592 36.6824 28.2192 36.0544 29.68C35.4264 31.1408 34.5716 32.4108 33.49 33.49C32.4084 34.5692 31.1384 35.4244 29.68 36.0556C28.2216 36.6868 26.6616 37.0016 25 37ZM25 34.6C27.68 34.6 29.95 33.67 31.81 31.81C33.67 29.95 34.6 27.68 34.6 25C34.6 22.32 33.67 20.05 31.81 18.19C29.95 16.33 27.68 15.4 25 15.4C22.32 15.4 20.05 16.33 18.19 18.19C16.33 20.05 15.4 22.32 15.4 25C15.4 27.68 16.33 29.95 18.19 31.81C20.05 33.67 22.32 34.6 25 34.6ZM25 32.2C23 32.2 21.3 31.5 19.9 30.1C18.5 28.7 17.8 27 17.8 25C17.8 23 18.5 21.3 19.9 19.9C21.3 18.5 23 17.8 25 17.8C27 17.8 28.7 18.5 30.1 19.9C31.5 21.3 32.2 23 32.2 25C32.2 27 31.5 28.7 30.1 30.1C28.7 31.5 27 32.2 25 32.2ZM25 29.8C26.32 29.8 27.45 29.33 28.39 28.39C29.33 27.45 29.8 26.32 29.8 25C29.8 23.68 29.33 22.55 28.39 21.61C27.45 20.67 26.32 20.2 25 20.2C23.68 20.2 22.55 20.67 21.61 21.61C20.67 22.55 20.2 23.68 20.2 25C20.2 26.32 20.67 27.45 21.61 28.39C22.55 29.33 23.68 29.8 25 29.8ZM25 27.4C24.34 27.4 23.7752 27.1652 23.3056 26.6956C22.836 26.226 22.6008 25.6608 22.6 25C22.5992 24.3392 22.8344 23.7744 23.3056 23.3056C23.7768 22.8368 24.3416 22.6016 25 22.6C25.6584 22.5984 26.2236 22.8336 26.6956 23.3056C27.1676 23.7776 27.4024 24.3424 27.4 25C27.3976 25.6576 27.1628 26.2228 26.6956 26.6956C26.2284 27.1684 25.6632 27.4032 25 27.4Z" fill="white"/>
<defs>
<linearGradient id="paint0_linear_1141_772" x1="0.0561807" y1="49.5238" x2="52.574" y2="46.6245" gradientUnits="userSpaceOnUse">
<stop stop-color="#EA411B"/>
<stop offset="1" stop-color="#FC8237"/>
</linearGradient>
</defs>
</svg>
