<svg xmlns="http://www.w3.org/2000/svg" xmlns:xlink="http://www.w3.org/1999/xlink" viewBox="0 0 13 11" overflow="visible"><g><path d="M 3.251 0 L 0 3.335 L 1.625 4.367 L 3.251 3.335 L 4.168 1.667 Z" fill="rgb(255,40,32)"></path><path d="M 3.251 3.335 L 0 3.335 L 0 7.67 L 1.625 8.586 L 3.251 7.67 Z" fill="rgb(0,132,255)"></path><path d="M 0 7.66 L 0 9.883 C 0 10.495 0.488 10.995 1.084 10.995 L 3.251 10.995 L 4.168 9.225 L 3.251 7.66 Z" fill="rgb(0,102,221)"></path><path d="M 12.329 1.181 L 10.318 2.815 L 10.318 2.832 L 9.663 5.4 L 10.318 7.999 L 12.32 9.652 C 12.588 9.883 13 9.689 13 9.328 L 13 1.505 C 13 1.144 12.597 0.95 12.329 1.181 Z" fill="rgb(0,173,60)"></path><path d="M 10.32 2.818 L 10.32 1.099 C 10.32 0.495 9.843 0 9.26 0 L 3.251 0 L 3.251 3.335 L 7.232 3.335 L 7.232 5.503 L 9.372 5.258 Z" fill="rgb(255,186,0)"></path><path d="M 7.232 7.665 L 3.251 7.665 L 3.251 11 L 9.26 11 C 9.843 11 10.32 10.506 10.32 9.903 L 10.32 7.999 L 9.259 5.762 L 7.232 5.497 Z" fill="rgb(0,173,60)"></path><path d="M 7.237 5.499 L 10.325 8 L 10.325 2.814 Z" fill="rgb(0,131,30)"></path></g></svg>