<svg width="39" height="39" viewBox="0 0 39 39" fill="none" xmlns="http://www.w3.org/2000/svg">
<rect width="39" height="39" rx="8.86364" fill="url(#paint0_radial_1204_1197)"/>
<rect width="39" height="39" rx="8.86364" fill="black" fill-opacity="0.3"/>
<rect x="1.15217" y="1.15217" width="36.6955" height="36.6955" rx="8.42045" stroke="white" stroke-opacity="0.08" stroke-width="0.886364"/>
<mask id="mask0_1204_1197" style="mask-type:luminance" maskUnits="userSpaceOnUse" x="7" y="8" width="25" height="24">
<path d="M31.4411 8H7.38086V32H31.4411V8Z" fill="white"/>
</mask>
<g mask="url(#mask0_1204_1197)">
<path d="M27.3067 14.846C26.4579 15.4256 25.6543 15.9752 24.8139 16.5492C24.6279 16.3232 24.5005 16.1656 24.3701 16.0108C22.712 14.0319 20.1436 13.2562 17.7414 14.0365C13.6094 15.3787 12.531 20.1451 14.462 23.2918C16.6518 26.8624 21.8065 27.1737 24.5212 23.9324C24.661 23.7654 24.7998 23.5985 24.9414 23.4287C25.2143 23.5816 25.4409 23.7082 25.5769 23.7842C25.8602 23.5581 26.0887 23.3752 26.3615 23.1577C25.761 22.7469 25.2313 22.3839 24.6458 21.9825C23.7658 23.5479 22.6034 24.7033 20.8348 25.0579C19.0861 25.4077 17.4959 25.04 16.1693 23.8236C14.0522 21.8812 13.9795 18.2909 15.9983 16.2453C16.9747 15.2558 18.1673 14.7616 19.5686 14.755C21.899 14.7447 23.389 16.0427 24.5137 17.9664C25.9243 17.0013 27.2747 16.0765 28.6089 15.1639C27.5995 12.8088 24.8545 10.6282 22.7819 10.4219C23.6242 11.1581 24.3531 11.8334 25.1227 12.4581C25.9621 13.1399 26.7374 13.8649 27.3067 14.846Z" fill="white"/>
<path d="M27.1695 16.8141C28.2592 17.9011 29.2761 18.9159 30.3432 19.9795C27.5727 22.7314 24.8532 25.4334 22.1338 28.1355C22.1574 28.1702 22.1819 28.2059 22.2056 28.2406C23.0261 27.9827 23.8712 27.7763 24.5171 27.1358L31.5017 20.1127C30.2856 18.9 29.0684 17.6263 27.8163 16.3789C27.685 16.4671 27.4698 16.6115 27.1685 16.8141H27.1695Z" fill="white"/>
<path d="M18.9289 30.181C16.8383 28.096 14.7449 26.0242 12.6467 23.9477C12.2048 23.5106 11.7393 23.1017 11.2842 22.6777C11.5722 23.867 12.1963 24.8724 13.0547 25.7306C15.0272 27.703 17.0121 29.6651 18.9941 31.6281C19.1479 31.7811 19.3151 31.8992 19.4294 32.0014C19.9468 31.525 20.4161 31.0448 20.9534 30.5758H19.2594C19.2074 30.482 19.0875 30.3376 18.9298 30.181H18.9289Z" fill="white"/>
<path d="M11.2725 22.6699C11.2725 22.6699 11.2803 22.6778 11.2842 22.6807C11.2823 22.6748 11.2813 22.6689 11.2793 22.6621L11.2725 22.6689V22.6699Z" fill="white"/>
<path d="M16.6478 11.9111C15.8376 12.0724 14.5732 12.7243 13.9519 13.3386C11.8396 15.4254 9.73489 17.5198 7.63109 19.6132C7.52061 19.7229 7.43468 19.857 7.38086 19.9236C7.84732 20.4282 8.28074 20.8962 8.77553 21.4308C8.74815 20.8606 8.72548 20.3851 8.6981 19.8064C11.3345 17.1878 13.9944 14.5456 16.6478 11.9102V11.9111Z" fill="white"/>
<path d="M12.2507 14.2206C14.2658 11.9405 16.7974 10.8722 19.8209 10.8704C19.9644 10.8704 20.1079 10.8329 20.3053 10.8057C20.2042 10.6744 20.1617 10.6059 20.107 10.5496C19.9653 10.4033 19.8398 10.2279 19.6689 10.1285C19.4715 10.0141 19.2288 9.89214 19.0145 9.90527C17.1949 10.0197 15.4782 10.4943 13.9287 11.4763C12.0298 12.6796 10.6323 14.2909 9.90332 16.435L9.94486 16.4762C10.7163 15.7269 11.5397 15.0234 12.2498 14.2206H12.2507Z" fill="white"/>
<path d="M13.3118 26.772C11.3261 24.9318 10.2732 22.6968 10.2685 19.9881C10.2685 19.7518 10.2685 19.5163 10.2685 19.25C9.37146 19.7799 9.19771 20.0285 9.30252 20.9138C9.76994 24.8765 11.8596 27.6574 15.5356 29.2602C15.614 29.2949 15.7065 29.2978 15.8472 29.3268C14.969 28.4367 14.173 27.5692 13.3118 26.771V26.772Z" fill="white"/>
<path d="M25.6672 15.3222C25.9335 15.1422 26.1648 14.9855 26.3433 14.8645C24.0195 12.5338 21.741 10.25 19.4975 8C19.0121 8.45019 18.5003 8.92571 17.9111 9.47251C18.523 9.41811 19.0386 9.37309 19.658 9.31775C21.6173 11.2761 23.6295 13.287 25.6672 15.3222Z" fill="white"/>
<path d="M27.2955 25.2293C25.7158 27.4662 23.5893 28.7886 20.8254 29.0109C20.1258 29.0671 19.4166 29.0193 18.6055 29.0193C19.0087 29.3963 19.3127 29.6796 19.7169 30.0566C22.7876 30.2967 26.745 28.2371 28.1991 25.7882L27.3503 25.1523C27.3314 25.1777 27.3125 25.203 27.2936 25.2283L27.2955 25.2293Z" fill="white"/>
</g>
<defs>
<radialGradient id="paint0_radial_1204_1197" cx="0" cy="0" r="1" gradientUnits="userSpaceOnUse" gradientTransform="translate(39 39) rotate(-133.767) scale(52.4088 90.2581)">
<stop stop-color="#A24AD8"/>
<stop offset="0.534996" stop-color="#C74993"/>
<stop offset="0.954942" stop-color="#EC4B38"/>
</radialGradient>
</defs>
</svg>
