<svg width="50" height="50" viewBox="0 0 50 50" fill="none" xmlns="http://www.w3.org/2000/svg">
<rect width="50" height="50" rx="13" fill="url(#paint0_linear_1141_765)"/>
<path d="M17.375 33.4644L19.7203 32.5056C19.5224 31.9263 19.3395 31.3371 19.1717 30.7378C19.0039 30.1386 18.8701 29.5393 18.7703 28.9401L17.375 29.8989V33.4644ZM22.125 32.206H26.875C27.2312 31.407 27.5182 30.4334 27.7359 29.2852C27.9536 28.1371 28.0625 26.9633 28.0625 25.764C28.0625 23.7865 27.7359 21.9141 27.0828 20.1467C26.4297 18.3793 25.5687 17.0158 24.5 16.0562C23.4312 17.015 22.5703 18.3785 21.9172 20.1467C21.2641 21.9149 20.9375 23.7873 20.9375 25.764C20.9375 26.9625 21.0464 28.1363 21.2641 29.2852C21.4818 30.4342 21.7687 31.4078 22.125 32.206ZM24.5 26.2135C23.8469 26.2135 23.288 25.979 22.8232 25.51C22.3585 25.0409 22.1258 24.4765 22.125 23.8165C22.1242 23.1565 22.357 22.5924 22.8232 22.1242C23.2895 21.656 23.8485 21.4211 24.5 21.4195C25.1515 21.4179 25.7109 21.6528 26.1779 22.1242C26.645 22.5956 26.8774 23.1597 26.875 23.8165C26.8726 24.4733 26.6403 25.0378 26.1779 25.51C25.7156 25.9822 25.1563 26.2167 24.5 26.2135ZM31.625 33.4644V29.8989L30.2297 28.9401C30.1307 29.5393 29.9973 30.1386 29.8295 30.7378C29.6617 31.3371 29.4784 31.9263 29.2797 32.5056L31.625 33.4644ZM24.5 13C26.4594 14.4382 27.939 16.2659 28.9389 18.4831C29.9387 20.7004 30.4383 23.2772 30.4375 26.2135L32.9312 27.8914C33.2677 28.1111 33.5301 28.4007 33.7186 28.7603C33.907 29.1199 34.0008 29.4994 34 29.8989V37L28.0922 34.603H20.9078L15 37V29.8989C15 29.4994 15.0942 29.1199 15.2826 28.7603C15.471 28.4007 15.7331 28.1111 16.0687 27.8914L18.5625 26.2135C18.5625 23.2772 19.0624 20.7004 20.0623 18.4831C21.0622 16.2659 22.5414 14.4382 24.5 13Z" fill="white"/>
<defs>
<linearGradient id="paint0_linear_1141_765" x1="0.0561807" y1="49.5238" x2="52.574" y2="46.6245" gradientUnits="userSpaceOnUse">
<stop stop-color="#EA411B"/>
<stop offset="1" stop-color="#FC8237"/>
</linearGradient>
</defs>
</svg>
