<svg width="21" height="22" viewBox="0 0 21 22" fill="none" xmlns="http://www.w3.org/2000/svg">
<path d="M17.7919 0.0839844C18.3813 0.0839844 18.9465 0.329817 19.3633 0.767402C19.78 1.20499 20.0142 1.79848 20.0142 2.41732V18.7507C20.0142 19.3695 19.78 19.963 19.3633 20.4006C18.9465 20.8382 18.3813 21.084 17.7919 21.084H2.23638C1.64701 21.084 1.08178 20.8382 0.665034 20.4006C0.248286 19.963 0.0141602 19.3695 0.0141602 18.7507V2.41732C0.0141602 1.79848 0.248286 1.20499 0.665034 0.767402C1.08178 0.329817 1.64701 0.0839844 2.23638 0.0839844H17.7919ZM17.2364 18.1673V11.984C17.2364 10.9753 16.8548 10.0079 16.1755 9.29462C15.4962 8.58136 14.5748 8.18065 13.6142 8.18065C12.6697 8.18065 11.5697 8.78732 11.0364 9.69732V8.40232H7.93638V18.1673H11.0364V12.4157C11.0364 11.5173 11.7253 10.7823 12.5808 10.7823C12.9934 10.7823 13.389 10.9544 13.6808 11.2607C13.9725 11.567 14.1364 11.9825 14.1364 12.4157V18.1673H17.2364ZM4.32527 6.57065C4.82034 6.57065 5.29514 6.36415 5.6452 5.99658C5.99527 5.62901 6.19194 5.13048 6.19194 4.61065C6.19194 3.52565 5.3586 2.63898 4.32527 2.63898C3.82725 2.63898 3.34963 2.84671 2.99748 3.21647C2.64533 3.58623 2.44749 4.08773 2.44749 4.61065C2.44749 5.69565 3.29194 6.57065 4.32527 6.57065ZM5.86972 18.1673V8.40232H2.79194V18.1673H5.86972Z" fill="white"/>
</svg>
