<svg width="13" height="13" viewBox="0 0 13 13" fill="none" xmlns="http://www.w3.org/2000/svg">
<path d="M4.9671 8.0336L12.3034 0.697266M12.3034 0.697266H9.55238M12.3034 0.697266V3.44831M7.14491 1.98674H5.33915C3.40462 1.98674 2.43767 1.98674 1.75981 2.4795C1.54079 2.63863 1.34818 2.83124 1.18905 3.05027C0.696289 3.72812 0.696289 4.69569 0.696289 6.6296V7.66155C0.696289 9.59607 0.696289 10.563 1.18905 11.2409C1.34815 11.46 1.54067 11.6526 1.75981 11.8116C2.43767 12.3044 3.40462 12.3044 5.33915 12.3044H6.3711C8.305 12.3044 9.27257 12.3044 9.95043 11.8116C10.1695 11.6525 10.362 11.4599 10.5212 11.2409C11.014 10.563 11.014 9.59607 11.014 7.66155V5.85579" stroke="black" stroke-width="1.5" stroke-linecap="round" stroke-linejoin="round"/>
</svg>
