<svg width="22" height="22" viewBox="0 0 22 22" fill="none" xmlns="http://www.w3.org/2000/svg">
<path d="M18.794 3.20105C17.7803 2.18257 16.573 1.37502 15.2425 0.825456C13.912 0.275893 12.4848 -0.00468947 11.0442 5.92845e-05C5.00804 5.92845e-05 0.0884424 4.89505 0.0884424 10.901C0.0884424 12.826 0.596985 14.696 1.54774 16.346L0 22L5.80402 20.482C7.40703 21.351 9.20904 21.813 11.0442 21.813C17.0804 21.813 22 16.918 22 10.912C22 7.99704 20.8613 5.25805 18.794 3.20105ZM11.0442 19.965C9.40804 19.965 7.80502 19.525 6.401 18.7L6.06935 18.502L2.6201 19.404L3.53769 16.06L3.31658 15.719C2.40734 14.2748 1.92464 12.6052 1.92362 10.901C1.92362 5.90704 6.01407 1.83705 11.0332 1.83705C13.4653 1.83705 15.7538 2.78305 17.4673 4.49905C18.316 5.33929 18.9885 6.33884 19.4458 7.4397C19.9032 8.54056 20.1363 9.72083 20.1317 10.912C20.1538 15.906 16.0633 19.965 11.0442 19.965ZM16.0412 13.189C15.7648 13.057 14.4161 12.397 14.1729 12.298C13.9186 12.21 13.7417 12.166 13.5538 12.43C13.3658 12.705 12.8462 13.321 12.6915 13.497C12.5367 13.684 12.3709 13.706 12.0945 13.563C11.8181 13.431 10.9337 13.134 9.89447 12.21C9.07638 11.484 8.53467 10.593 8.36884 10.318C8.21407 10.043 8.34673 9.90003 8.49045 9.75703C8.61206 9.63603 8.76683 9.43803 8.8995 9.28403C9.03216 9.13003 9.08744 9.00904 9.17588 8.83304C9.26432 8.64604 9.2201 8.49204 9.15377 8.36004C9.08744 8.22804 8.53467 6.88604 8.31357 6.33604C8.09246 5.80804 7.8603 5.87404 7.69447 5.86304H7.16382C6.97588 5.86304 6.68844 5.92904 6.43417 6.20404C6.19095 6.47904 5.48342 7.13904 5.48342 8.48104C5.48342 9.82303 6.46734 11.121 6.6 11.297C6.73266 11.484 8.53467 14.234 11.2764 15.411C11.9286 15.697 12.4372 15.862 12.8352 15.983C13.4874 16.192 14.0844 16.159 14.5598 16.093C15.0905 16.016 16.1849 15.433 16.406 14.795C16.6382 14.157 16.6382 13.618 16.5608 13.497C16.4834 13.376 16.3176 13.321 16.0412 13.189Z" fill="#25D366"/>
</svg>
