<svg width="17" height="16" viewBox="0 0 17 16" fill="none" xmlns="http://www.w3.org/2000/svg">
<path d="M7.96631 11.3187C7.96631 9.87955 7.96631 9.15995 8.27571 8.62375C8.47846 8.27255 8.7701 7.98091 9.12131 7.77815C9.65751 7.46875 10.3771 7.46875 11.8163 7.46875C13.2555 7.46875 13.9751 7.46875 14.5113 7.77815C14.8625 7.98091 15.1542 8.27255 15.3569 8.62375C15.6663 9.15995 15.6663 9.87955 15.6663 11.3187C15.6663 12.7579 15.6663 13.4776 15.3569 14.0138C15.1542 14.365 14.8625 14.6566 14.5113 14.8594C13.9751 15.1688 13.2555 15.1687 11.8163 15.1687C10.3771 15.1687 9.65751 15.1688 9.12131 14.8594C8.7701 14.6566 8.47846 14.365 8.27571 14.0138C7.96631 13.4776 7.96631 12.7579 7.96631 11.3187Z" stroke="white" stroke-width="1.5"/>
<path d="M6.2256 10.268C5.8854 10.2358 5.6327 10.1721 5.4164 10.0468C5.12745 9.88044 4.88764 9.64062 4.7213 9.35167C4.4665 8.90997 4.4665 8.31847 4.4665 7.13477C4.4665 5.95107 4.4665 5.35887 4.7213 4.91787C4.88764 4.62891 5.12745 4.3891 5.4164 4.22277C5.8574 3.96797 6.4496 3.96797 7.6333 3.96797C8.817 3.96797 9.4092 3.96797 9.8502 4.22277C10.1393 4.38937 10.3787 4.62877 10.5453 4.91787C10.6706 5.13417 10.7343 5.38687 10.7665 5.72707M2.6577 6.06797C2.3238 5.96647 2.0417 5.71587 1.8681 5.41697C1.6665 5.06977 1.6665 4.60287 1.6665 3.66697C1.6665 2.73317 1.6665 2.26557 1.8681 1.91767C2.0004 1.69017 2.1901 1.50047 2.419 1.36887C2.769 1.16797 3.238 1.16797 4.176 1.16797C5.114 1.16797 5.583 1.16797 5.933 1.36887C6.213 1.52987 6.4566 1.78957 6.5665 2.09687" stroke="white" stroke-width="1.5" stroke-linecap="round"/>
</svg>
