<svg width="24" height="21" viewBox="0 0 24 21" fill="none" xmlns="http://www.w3.org/2000/svg">
<path d="M1.10845 9.99485C4.41575 11.2242 8.07899 11.804 11.9485 11.804C15.8228 11.804 19.4771 11.2242 22.7933 9.99485L22.7771 8.37842C19.5739 9.6895 15.9493 10.3116 11.9485 10.3116C7.95251 10.3116 4.32791 9.6895 1.12467 8.35685L1.10845 9.99485ZM10.362 13.7314H13.5398C14.2428 13.7314 14.6498 13.3137 14.6498 12.5798V11.0029H9.25196V12.5798C9.25196 13.3137 9.65899 13.7314 10.362 13.7314ZM3.17332 20.9449H20.7193C22.7795 20.9449 23.7939 19.9032 23.7939 17.7643V7.12551C23.7939 4.98663 22.7795 3.94486 20.7193 3.94486H3.17332C1.13142 3.94486 0.10791 4.98663 0.10791 7.12551V17.7643C0.10791 19.9032 1.13142 20.9449 3.17332 20.9449ZM3.19169 19.4133C2.11872 19.4133 1.5744 18.8568 1.5744 17.7016V7.19759C1.5744 6.03294 2.11872 5.47616 3.19169 5.47616H20.7101C21.7739 5.47616 22.3182 6.03294 22.3182 7.19759V17.7016C22.3182 18.8568 21.7739 19.4133 20.7101 19.4133H3.19169ZM6.78872 4.78827H8.20088V2.80263C8.20088 1.96888 8.68224 1.49013 9.50494 1.49013H14.3836C15.2195 1.49013 15.692 1.96888 15.692 2.80263V4.76925H17.113V2.90792C17.113 1.00004 16.129 0.0839844 14.3574 0.0839844H9.53115C7.85467 0.0839844 6.78872 1.00004 6.78872 2.90792V4.78827Z" fill="white"/>
</svg>
