<svg width="12" height="15" viewBox="0 0 12 15" fill="none" xmlns="http://www.w3.org/2000/svg">
<path d="M5.39494 6.07457C5.18863 6.19821 5.02228 6.38256 4.91692 6.60432C4.81156 6.82607 4.77192 7.07527 4.80301 7.32041C4.8341 7.56555 4.93453 7.79561 5.0916 7.98151C5.24867 8.16741 5.45532 8.3008 5.68543 8.36481C5.91553 8.42883 6.15876 8.42059 6.38436 8.34114C6.60995 8.26169 6.80779 8.11459 6.95284 7.91846C7.09789 7.72232 7.18365 7.48595 7.19927 7.23923C7.2149 6.99251 7.15968 6.74652 7.04061 6.53237C6.96153 6.39014 6.85623 6.26548 6.73073 6.1655C6.60522 6.06552 6.46197 5.99218 6.30915 5.94966C6.15632 5.90715 5.99693 5.8963 5.84007 5.91773C5.68321 5.93916 5.53195 5.99246 5.39494 6.07457ZM10.794 7.43117C10.7148 7.33737 10.6314 7.24334 10.5437 7.14907C10.6049 7.08187 10.6642 7.0149 10.7218 6.94817C11.8043 5.68537 12.2616 4.41837 11.838 3.65747C11.432 2.92737 10.2241 2.70967 8.71124 3.01487C8.56241 3.0452 8.41426 3.07927 8.26678 3.11707C8.23845 3.01627 8.20855 2.91594 8.17707 2.81607C7.66381 1.21097 6.8349 0.167269 5.98778 0.167969C5.17574 0.167969 4.39067 1.14587 3.88955 2.65857C3.84009 2.8079 3.79445 2.95817 3.75263 3.10937C3.65416 3.08417 3.55524 3.06084 3.45587 3.03937C1.8601 2.69987 0.575262 2.92387 0.152377 3.68617C-0.252972 4.41627 0.170587 5.61117 1.18295 6.81657C1.28367 6.93557 1.38708 7.05224 1.4932 7.16657C1.36775 7.30004 1.24972 7.43327 1.13911 7.56627C0.151028 8.75487 -0.248251 9.92947 0.156424 10.6568C0.574588 11.4086 1.84122 11.6543 3.3837 11.3393C3.5087 11.3136 3.63303 11.2847 3.75668 11.2525C3.80164 11.4163 3.85133 11.5789 3.90573 11.7404C4.40483 13.2223 5.18518 14.168 5.99453 14.168C6.83086 14.168 7.66853 13.1509 8.1764 11.6067C8.21642 11.4844 8.25441 11.3582 8.29038 11.228C8.45 11.269 8.61075 11.3054 8.77262 11.3372C10.2584 11.6291 11.4381 11.4002 11.8421 10.6722C12.2596 9.91967 11.8286 8.65827 10.794 7.43117ZM0.651476 3.98437C0.911816 3.51537 1.96195 3.33197 3.33986 3.62597C3.42799 3.64464 3.5177 3.66564 3.60897 3.68897C3.47435 4.30663 3.37927 4.93287 3.32435 5.56357C2.82757 5.92639 2.3538 6.32201 1.90597 6.74797C1.8075 6.64204 1.7115 6.53354 1.61797 6.42247C0.749946 5.39067 0.407322 4.42467 0.651476 3.98437ZM3.27309 7.99397C2.92912 7.72307 2.60875 7.44587 2.31806 7.16727C2.60808 6.89007 2.92844 6.61427 3.27242 6.34407C3.25983 6.61894 3.25376 6.89404 3.25421 7.16937C3.25421 7.4447 3.2605 7.71957 3.27309 7.99397ZM3.27309 10.752C2.68856 10.8877 2.08488 10.91 1.49252 10.8178C1.33016 10.8044 1.17215 10.7567 1.0282 10.6776C0.884258 10.5986 0.75743 10.4897 0.655523 10.3579C0.409346 9.91687 0.730387 8.97327 1.57548 7.95687C1.6816 7.82947 1.79131 7.70534 1.90462 7.58447C2.35253 8.0132 2.82726 8.41074 3.3257 8.77447C3.38147 9.4131 3.47745 10.0473 3.61302 10.6729C3.50061 10.7023 3.38708 10.7289 3.27242 10.7527M8.06107 5.12537C7.8349 4.97744 7.60603 4.8344 7.37447 4.69627C7.14605 4.56 6.91516 4.42864 6.6818 4.30217C7.06557 4.13431 7.457 3.98597 7.85468 3.85767C7.94422 4.27632 8.0131 4.69943 8.06107 5.12537ZM4.43518 2.85247C4.86414 1.55747 5.49948 0.766469 5.98913 0.766469C6.51049 0.765769 7.18764 1.61907 7.63076 3.00437C7.65954 3.0949 7.68652 3.1859 7.7117 3.27737C7.13002 3.46451 6.56088 3.69134 6.00802 3.95637C5.45705 3.68793 4.88921 3.45851 4.30838 3.26967C4.3475 3.12967 4.38977 2.9906 4.43518 2.85247ZM4.1654 3.84927C4.56148 3.97827 4.95093 4.12826 5.33221 4.29867C4.85919 4.5516 4.39876 4.82717 3.95092 5.12537C4.00488 4.67877 4.07705 4.25107 4.1654 3.84927ZM3.9516 9.21127C4.17507 9.36014 4.40191 9.50317 4.63212 9.64037C4.86684 9.78037 5.10447 9.91477 5.34503 10.0436C4.96096 10.2197 4.56835 10.3751 4.16877 10.5091C4.07579 10.0807 4.00331 9.64779 3.9516 9.21197M7.63144 11.4142C7.45251 12.0073 7.16943 12.561 6.79646 13.0473C6.70437 13.1866 6.58578 13.305 6.44799 13.395C6.31019 13.4851 6.15611 13.5449 5.9952 13.5709C5.50352 13.5709 4.87695 12.8114 4.4507 11.5437C4.40034 11.3939 4.35402 11.2427 4.31176 11.0901C4.89537 10.8949 5.46549 10.6587 6.01813 10.3831C6.57583 10.6499 7.14965 10.8788 7.73598 11.0684C7.7036 11.1846 7.66876 11.2998 7.63144 11.4142ZM7.87559 10.4874C7.47252 10.357 7.07591 10.2061 6.6872 10.0352C6.91606 9.91057 7.1465 9.77874 7.37852 9.63967C7.61682 9.49687 7.84884 9.35057 8.07456 9.20077C8.02966 9.63291 7.96325 10.0624 7.87559 10.4874ZM8.17707 7.16727C8.17707 7.5924 8.16426 8.01707 8.13863 8.44127C7.80545 8.67554 7.45608 8.90234 7.09052 9.12167C6.72631 9.3396 6.36728 9.53934 6.01341 9.72087C5.64156 9.53607 5.27691 9.3368 4.91944 9.12307C4.56423 8.91074 4.21711 8.68464 3.87808 8.44477C3.84661 8.0201 3.83087 7.59497 3.83087 7.16937C3.83087 6.74424 3.84616 6.31934 3.87673 5.89467C4.5545 5.41386 5.26654 4.98726 6.00667 4.61857C6.37357 4.80384 6.73396 5.0024 7.08782 5.21427C7.44304 5.42614 7.79151 5.6499 8.13323 5.88557C8.16246 6.3121 8.17707 6.73934 8.17707 7.16727ZM8.82185 3.60217C10.1182 3.34107 11.0948 3.51677 11.3396 3.95707C11.6006 4.42607 11.227 5.46067 10.2915 6.55127C10.2398 6.61147 10.1863 6.6719 10.131 6.73257C9.67545 6.30499 9.19231 5.91021 8.68494 5.55097C8.63393 4.92723 8.54268 4.30774 8.41178 3.69667C8.55117 3.6612 8.68786 3.6297 8.82185 3.60217ZM8.73418 6.32167C9.07662 6.58082 9.40576 6.8584 9.72023 7.15327C9.40719 7.45283 9.07917 7.73508 8.73755 7.99887C8.74789 7.72167 8.75306 7.44447 8.75306 7.16727C8.75306 6.8854 8.74677 6.60354 8.73418 6.32167ZM11.3437 10.374C11.0981 10.8157 10.1512 10.9998 8.87986 10.7506C8.73418 10.7221 8.5849 10.688 8.43202 10.6484C8.55982 10.0294 8.64702 9.40217 8.69303 8.77097C9.19935 8.40547 9.68092 8.00436 10.1343 7.57047C10.2139 7.65587 10.2895 7.7408 10.361 7.82527C10.7668 8.28244 11.0876 8.81357 11.3072 9.39187C11.3775 9.54433 11.417 9.71011 11.4233 9.87901C11.4295 10.0479 11.4024 10.2163 11.3437 10.374Z" fill="white"/>
</svg>
