<svg width="16" height="16" viewBox="0 0 16 16" fill="none" xmlns="http://www.w3.org/2000/svg">
<path d="M13.303 1.16797H2.69697C1.75976 1.16797 1 1.92773 1 2.86494V13.471C1 14.4082 1.75976 15.168 2.69697 15.168H13.303C14.2402 15.168 15 14.4082 15 13.471V2.86494C15 1.92773 14.2402 1.16797 13.303 1.16797Z" stroke="white" stroke-width="1.5" stroke-linecap="round" stroke-linejoin="round"/>
<path d="M12.4544 7.53125H10.7574C10.5324 7.53125 10.3166 7.62064 10.1574 7.77977C9.99831 7.93889 9.90891 8.1547 9.90891 8.37973V9.22822C9.90891 9.45325 9.99831 9.66907 10.1574 9.82819C10.3166 9.98731 10.5324 10.0767 10.7574 10.0767H11.6059C11.8309 10.0767 12.0467 10.1661 12.2059 10.3252C12.365 10.4843 12.4544 10.7002 12.4544 10.9252V11.7737C12.4544 11.9987 12.365 12.2145 12.2059 12.3736C12.0467 12.5328 11.8309 12.6222 11.6059 12.6222H9.90891M5.87861 7.53125V12.6222M4.18164 7.53125H7.57558" stroke="white" stroke-width="1.5" stroke-linecap="round" stroke-linejoin="round"/>
</svg>
