<svg width="16" height="16" viewBox="0 0 16 16" fill="none" xmlns="http://www.w3.org/2000/svg">
<path d="M1 8.16797C1 4.86839 1 3.21786 2.02495 2.19292C3.04989 1.16797 4.69968 1.16797 8 1.16797C11.2996 1.16797 12.9501 1.16797 13.9751 2.19292C15 3.21786 15 4.86765 15 8.16797C15 11.4675 15 13.1181 13.9751 14.143C12.9501 15.168 11.3003 15.168 8 15.168C4.70042 15.168 3.04989 15.168 2.02495 14.143C1 13.1181 1 11.4683 1 8.16797Z" stroke="white"/>
<path d="M1 5.95703H15" stroke="white" stroke-linejoin="round"/>
<path d="M8.73682 8.9043H11.6842M8.73682 11.8517H10.2105" stroke="white" stroke-linecap="round" stroke-linejoin="round"/>
<path d="M4.31592 3.74609H4.32255M7.26329 3.74609H7.26992" stroke="white" stroke-linecap="round" stroke-linejoin="round"/>
<path d="M5.78955 5.95703V15.1676" stroke="white" stroke-linecap="round" stroke-linejoin="round"/>
</svg>
