<svg width="26" height="16" viewBox="0 0 26 16" fill="none" xmlns="http://www.w3.org/2000/svg">
<path d="M1.33545 12.2504V12.8337C1.33545 13.9337 1.33545 14.4844 1.80558 14.8332C2.2757 15.1831 2.726 15.049 3.62659 14.7783C8.91815 13.1953 14.751 8.75067 14.751 8.75067L13.1446 11.7161C12.3105 13.256 11.8941 14.0247 12.23 14.5963C12.5683 15.168 13.4374 15.168 15.1791 15.168H16.6957C17.3746 15.168 17.7141 15.168 17.9894 15C18.2647 14.8343 18.4234 14.5322 18.743 13.9291L23.6718 4.59652C24.4802 3.06481 24.885 2.29954 24.5467 1.73376C24.2107 1.16797 23.3486 1.16797 21.6268 1.16797H19.6681C18.9716 1.16797 18.6228 1.16797 18.3429 1.34295C18.0629 1.51677 17.9077 1.83058 17.5963 2.45819L15.9176 5.83425L15.5898 3.2118C15.4684 2.23888 15.4078 1.75125 15.0765 1.45961C14.7452 1.16797 14.2552 1.16797 13.2741 1.16797H11.9116C11.1171 1.16797 10.7193 1.16797 10.4242 1.36629C10.1291 1.5646 9.96923 1.9589 9.64842 2.74517C8.55185 5.44111 6.71217 8.50802 3.62892 9.54977C2.39236 9.9674 1.77408 10.1762 1.55476 10.4807C1.33545 10.7875 1.33545 11.2751 1.33545 12.2504Z" stroke="white" stroke-linejoin="round"/>
<path d="M1.33545 3.50111V4.08439C1.33545 5.18447 1.33545 5.73392 1.67725 6.07573C2.01906 6.41753 2.56851 6.41753 3.66859 6.41753H4.25187C5.35195 6.41753 5.9014 6.41753 6.24321 6.07573C6.58501 5.73392 6.58501 5.18447 6.58501 4.08439V3.50111C6.58501 2.40103 6.58501 1.85158 6.24321 1.50977C5.9014 1.16797 5.35195 1.16797 4.25187 1.16797H3.66859C2.56851 1.16797 2.01906 1.16797 1.67725 1.50977C1.33545 1.85158 1.33545 2.40103 1.33545 3.50111Z" stroke="white" stroke-linejoin="round"/>
</svg>
